<?xml version="1.0" encoding="UTF-8" standalone="no"?>
<!-- Created with Inkscape (http://www.inkscape.org/) -->

<svg
   xmlns:dc="http://purl.org/dc/elements/1.1/"
   xmlns:cc="http://creativecommons.org/ns#"
   xmlns:rdf="http://www.w3.org/1999/02/22-rdf-syntax-ns#"
   xmlns:svg="http://www.w3.org/2000/svg"
   xmlns="http://www.w3.org/2000/svg"
   xmlns:sodipodi="http://sodipodi.sourceforge.net/DTD/sodipodi-0.dtd"
   xmlns:inkscape="http://www.inkscape.org/namespaces/inkscape"
   width="210mm"
   height="297mm"
   viewBox="0 0 744.09448819 1052.3622047"
   id="svg2"
   version="1.1"
   inkscape:version="0.91 r13725"
   sodipodi:docname="logo.svg">
  <defs
     id="defs4" />
  <sodipodi:namedview
     id="base"
     pagecolor="#ffffff"
     bordercolor="#666666"
     borderopacity="1.0"
     inkscape:pageopacity="0.0"
     inkscape:pageshadow="2"
     inkscape:zoom="0.89556256"
     inkscape:cx="533.9543"
     inkscape:cy="626.00057"
     inkscape:document-units="px"
     inkscape:current-layer="layer1"
     showgrid="false"
     inkscape:window-width="1680"
     inkscape:window-height="1001"
     inkscape:window-x="0"
     inkscape:window-y="1"
     inkscape:window-maximized="1" />
  <metadata
     id="metadata7">
    <rdf:RDF>
      <cc:Work
         rdf:about="">
        <dc:format>image/svg+xml</dc:format>
        <dc:type
           rdf:resource="http://purl.org/dc/dcmitype/StillImage" />
        <dc:title />
      </cc:Work>
    </rdf:RDF>
  </metadata>
  <g
     inkscape:label="Calque 1"
     inkscape:groupmode="layer"
     id="layer1">
    <rect
       style="opacity:0.98999999;fill:#c2c2c2;fill-opacity:1;fill-rule:nonzero;stroke:none;stroke-width:2.28351068;stroke-linecap:butt;stroke-linejoin:bevel;stroke-miterlimit:4;stroke-dasharray:2.28351081, 4.56702162000000023;stroke-dashoffset:1.5;stroke-opacity:1"
       id="rect4136"
       width="856.56866"
       height="955.69995"
       x="45.938587"
       y="38.220566" />
    <path
       style="opacity:0.98999999;fill:#ffffff;fill-opacity:1;fill-rule:nonzero;stroke:none;stroke-width:1.5;stroke-linecap:butt;stroke-linejoin:bevel;stroke-miterlimit:4;stroke-dasharray:1.5, 3;stroke-dashoffset:1.5;stroke-opacity:1"
       d="M 204.54102 537.82617 A 189.77847 189.77847 0 0 0 200.80664 541.53711 L 468.85742 809.58984 A 189.77847 189.77847 0 0 0 472.5918 805.87891 L 204.54102 537.82617 z "
       id="path4188" />
    <path
       style="opacity:0.98999999;fill:#ef5350;fill-opacity:1;fill-rule:nonzero;stroke:none;stroke-width:1.5;stroke-linecap:butt;stroke-linejoin:bevel;stroke-miterlimit:4;stroke-dasharray:1.5, 3;stroke-dashoffset:1.5;stroke-opacity:1"
       d="M 327.44727 487.14453 A 189.77847 189.77847 0 0 0 204.54102 537.82617 L 472.5918 805.87891 A 189.77847 189.77847 0 0 0 505.38867 757.39844 A 189.77847 189.77847 0 0 0 414.14453 505.00195 A 189.77847 189.77847 0 0 0 327.44727 487.14453 z M 200.80664 541.53711 A 189.77847 189.77847 0 0 0 161.74609 596.23633 L 161.73242 596.26367 A 189.77847 189.77847 0 0 0 252.99609 848.65234 A 189.77847 189.77847 0 0 0 468.85742 809.58984 L 200.80664 541.53711 z "
       id="path4138" />
    <g
       style="font-style:normal;font-weight:normal;font-size:40px;line-height:125%;font-family:Sans;letter-spacing:0px;word-spacing:0px;fill:#ffffff;fill-opacity:1;stroke:none;stroke-width:1px;stroke-linecap:butt;stroke-linejoin:miter;stroke-opacity:1"
       id="flowRoot4140"
       transform="matrix(0.87743752,0,-0.46948416,0.87743752,405.32734,101.54953)">
      <path
         style="font-style:normal;font-variant:normal;font-weight:300;font-stretch:normal;font-size:180px;line-height:125%;font-family:'SFNS Display';-inkscape-font-specification:'SFNS Display, Light';text-align:start;writing-mode:lr-tb;text-anchor:start;fill:#ffffff;fill-opacity:1;stroke:none;stroke-opacity:1"
         d="m 391.51367,563.73438 -2.95898,5.53124 23.34179,0 0,0.0215 13.20118,0 c 4.1644,0 7.64196,0.51472 10.43359,1.54297 2.79162,1.02825 4.85988,2.49227 6.20703,4.39453 1.34714,1.90226 1.93438,4.21655 1.76172,6.94141 -0.17265,2.72485 -1.15138,5.75781 -2.93945,9.0996 -1.95313,3.6503 -4.4091,6.94059 -7.36524,9.8711 -2.90472,2.9305 -6.16559,5.42397 -9.78515,7.48047 -3.56815,2.05649 -7.42743,3.65017 -11.58008,4.78125 -4.07372,1.07966 -8.29792,1.61914 -12.66797,1.61914 l -28.99609,0 11.97851,-22.38672 -6.0918,0 -28.63671,53.51953 6.09375,0 13.72851,-25.65625 29.99805,0 c 5.29547,0 9.69728,0.56424 13.20508,1.69531 3.5592,1.13107 6.2001,2.77623 7.92382,4.93555 1.75123,2.1079 2.5598,4.67956 2.42774,7.71289 -0.0806,3.03334 -1.15166,6.47803 -3.21485,10.33399 -2.00813,3.75309 -4.52939,7.11964 -7.56445,10.10156 -3.03505,2.98191 -6.50408,5.52686 -10.4082,7.63476 -3.85272,2.10791 -8.06105,3.7283 -12.625,4.85938 -4.56395,1.13107 -9.34113,1.69531 -14.32813,1.69531 l -6.22461,0 0,0.0527 -44.52148,0 0,-0.10742 -49.51367,0 -59.54297,111.28125 6.0918,0 c 18.79004,-35.18384 39.69214,-74.18123 56.53125,-105.65234 l 57.91601,0 0.0117,-0.0215 36.90039,0 c 5.80959,0 11.39772,-0.69388 16.76758,-2.08203 5.36986,-1.38813 10.36214,-3.36688 14.97656,-5.9375 4.61442,-2.57061 8.74675,-5.68176 12.39649,-9.33203 3.70114,-3.65028 6.77633,-7.76219 9.22461,-12.33789 2.14569,-4.01016 3.36469,-7.63602 3.6582,-10.875 0.37243,-3.29039 -0.0685,-6.11745 -1.32227,-8.48242 -1.17487,-2.41638 -3.0743,-4.34366 -5.69726,-5.7832 -2.59546,-1.49096 -5.73656,-2.44222 -9.42383,-2.85352 l 0.24805,-0.46289 c 3.6205,-0.61695 7.18097,-1.6959 10.67968,-3.23828 3.57762,-1.59378 6.92057,-3.52302 10.03321,-5.78516 3.16406,-2.26214 6.03086,-4.83183 8.59961,-7.71093 2.56874,-2.87909 4.74903,-5.99023 6.53711,-9.33204 2.14568,-4.01016 3.31547,-7.68554 3.50976,-11.02734 0.24571,-3.34181 -0.43905,-6.19558 -2.05273,-8.56055 -1.56228,-2.36496 -4.00373,-4.18929 -7.32617,-5.47461 -3.24354,-1.33671 -7.28248,-2.00585 -12.11524,-2.00585 z m -121.41211,157.80468 -2.97656,5.55274 33.7832,0 2.97266,-5.55274 z"
         transform="matrix(1.1396823,0,0.60980157,1.1396823,-523.86945,-115.7342)"
         id="path4160"
         inkscape:connector-curvature="0"
         sodipodi:nodetypes="ccccssssscccsccccccscccsscssccccccccccssscscccccccsscccscccccc" />
    </g>
    <g
       transform="matrix(1,0,-0.53506277,1,535.61282,-72.785627)"
       style="font-style:normal;font-weight:normal;font-size:40px;line-height:125%;font-family:Sans;letter-spacing:0px;word-spacing:0px;fill:#ffffff;fill-opacity:1;stroke:none;stroke-width:1px;stroke-linecap:butt;stroke-linejoin:miter;stroke-opacity:1"
       id="flowRoot4148" />
    <path
       style="opacity:0.98999999;fill:#df4244;fill-opacity:1;fill-rule:nonzero;stroke:none;stroke-width:6;stroke-linecap:butt;stroke-linejoin:bevel;stroke-miterlimit:4;stroke-dasharray:none;stroke-dashoffset:1.5;stroke-opacity:1"
       id="path4226"
       sodipodi:type="arc"
       sodipodi:cx="579.60583"
       sodipodi:cy="261.87659"
       sodipodi:rx="190.22501"
       sodipodi:ry="190.22501"
       sodipodi:start="3.580159"
       sodipodi:end="3.5800019"
       sodipodi:open="true"
       d="M 407.38346,181.09907 A 190.22501,190.22501 0 0 1 660.37658,89.65104 190.22501,190.22501 0 0 1 751.83455,342.64057 190.22501,190.22501 0 0 1 498.84861,434.10848 190.22501,190.22501 0 0 1 407.37077,181.12613"
       inkscape:export-xdpi="90"
       inkscape:export-ydpi="90" />
    <g
       id="g4189"
       transform="translate(-6.6744347,0)"
       inkscape:export-xdpi="90"
       inkscape:export-ydpi="90">
      <g
         inkscape:export-ydpi="90"
         inkscape:export-xdpi="90"
         transform="matrix(-1.3982657,0,0,1.3982657,1288.1915,-72.018892)"
         id="text4228"
         style="font-style:normal;font-weight:normal;font-size:40px;line-height:125%;font-family:Sans;letter-spacing:0px;word-spacing:0px;fill:#ffffff;fill-opacity:1;stroke:none;stroke-width:1px;stroke-linecap:butt;stroke-linejoin:miter;stroke-opacity:1">
        <path
           sodipodi:nodetypes="cccccccccccc"
           inkscape:connector-curvature="0"
           id="path4237"
           transform="matrix(-0.71517166,0,0,0.71517166,921.27805,51.50587)"
           d="m 468.6582,173.16992 0,8.9707 90.4043,0 0,-0.0977 0.0762,0 0,-8.87305 z m 31.25941,83.07617 0,8.84766 59.14489,0 0,-8.84766 z"
           style="font-style:normal;font-variant:normal;font-weight:300;font-stretch:normal;font-size:180px;line-height:125%;font-family:'SFNS Display';-inkscape-font-specification:'SFNS Display, Light';text-align:start;writing-mode:lr-tb;text-anchor:start;fill:#ffffff;fill-opacity:1" />
      </g>
      <g
         inkscape:export-ydpi="90"
         inkscape:export-xdpi="90"
         transform="matrix(1.3982657,0,0,1.3982657,-274.83289,-86.070832)"
         id="text4232"
         style="font-style:normal;font-weight:normal;font-size:40px;line-height:125%;font-family:Sans;letter-spacing:0px;word-spacing:0px;fill:#ffffff;fill-opacity:1;stroke:none;stroke-width:1px;stroke-linecap:butt;stroke-linejoin:miter;stroke-opacity:1">
        <path
           id="path4240"
           transform="matrix(0.71517166,0,0,0.71517166,196.55269,61.55542)"
           d="m 594.47852,173.24609 0,8.79688 0.36914,0 0,0.0508 46.5,0 c 6.63631,0 12.61792,0.82038 17.94336,2.45898 5.32542,1.6386 9.87186,3.97251 13.64062,7.00391 3.76877,3.03138 6.67833,6.71828 8.72656,11.06055 2.04825,4.34227 3.07227,9.17652 3.07227,14.50195 10e-6,5.81701 -1.10626,11.06049 -3.31836,15.73047 -2.13017,4.66998 -5.20224,8.64274 -9.2168,11.91992 -3.93262,3.27719 -8.72577,5.81865 -14.3789,7.62109 -5.57123,1.72054 -11.83872,2.58008 -18.80274,2.58008 l -44.16601,0 0,8.72461 45.76367,0 c 8.43876,0 15.93586,0.90263 22.49023,2.70508 6.6363,1.80245 12.24788,4.42419 16.83594,7.86523 4.58806,3.35913 8.06935,7.45522 10.44531,12.28907 2.4579,4.83384 3.6875,10.32207 3.6875,16.46679 0,5.98086 -1.14738,11.34769 -3.4414,16.09961 -2.29404,4.75193 -5.65393,8.80886 -10.07813,12.16797 -4.34227,3.35911 -9.66602,5.93974 -15.97461,7.74219 -6.30858,1.80245 -13.43758,2.70312 -21.38476,2.70313 l -48.71289,0 0,8.84765 49.69726,0 c 9.25804,0 17.5736,-1.10626 24.94727,-3.31836 7.37367,-2.2121 13.64117,-5.3664 18.80273,-9.46289 5.16157,-4.09648 9.0932,-9.05214 11.79688,-14.86914 2.78561,-5.81701 4.17968,-12.37233 4.17968,-19.66406 0,-6.39052 -1.14737,-12.16657 -3.4414,-17.32813 -2.2121,-5.24349 -5.3253,-9.74882 -9.33985,-13.51757 -3.93262,-3.85072 -8.60242,-6.92278 -14.00976,-9.2168 -5.40736,-2.37596 -11.22453,-3.89144 -17.45117,-4.54688 l 0,-0.73828 c 5.24349,-0.98316 9.99552,-2.70422 14.25586,-5.16211 4.34227,-2.53982 8.02914,-5.6119 11.06054,-9.21679 3.11332,-3.6049 5.48836,-7.70101 7.12696,-12.28907 1.6386,-4.58806 2.45898,-9.54566 2.45898,-14.87109 0,-6.39051 -1.27074,-12.24683 -3.81055,-17.57227 -2.4579,-5.32542 -5.9803,-9.8738 -10.56836,-13.64257 -4.50613,-3.76876 -9.95519,-6.67636 -16.3457,-8.72461 -6.30858,-2.13016 -13.31424,-3.19532 -21.01562,-3.19532 l -48.34375,0 z"
           style="font-style:normal;font-variant:normal;font-weight:300;font-stretch:normal;font-size:180px;line-height:125%;font-family:'SFNS Display';-inkscape-font-specification:'SFNS Display, Light';text-align:start;writing-mode:lr-tb;text-anchor:start;fill:#ffffff;fill-opacity:1"
           inkscape:connector-curvature="0" />
      </g>
      <rect
         inkscape:export-ydpi="90"
         inkscape:export-xdpi="90"
         y="208.88426"
         x="571.97955"
         height="105.98636"
         width="9.9362268"
         id="rect4154"
         style="opacity:0.98999999;fill:#ffffff;fill-opacity:1;fill-rule:nonzero;stroke:none;stroke-width:6;stroke-linecap:butt;stroke-linejoin:bevel;stroke-miterlimit:4;stroke-dasharray:none;stroke-dashoffset:1.5;stroke-opacity:1" />
    </g>
  </g>
</svg>
